<mxfile host="65bd71144e">
    <diagram id="C26SKFu2ytmyNqt_dLdf" name="Page-1">
        <mxGraphModel dx="1080" dy="510" grid="0" gridSize="10" guides="1" tooltips="1" connect="1" arrows="1" fold="1" page="1" pageScale="1" pageWidth="850" pageHeight="1100" math="0" shadow="0">
            <root>
                <mxCell id="0"/>
                <mxCell id="1" parent="0"/>
                <mxCell id="2" value="&lt;h4&gt;&lt;font style=&quot;font-size: 15px;&quot;&gt;&lt;font style=&quot;&quot;&gt;y&lt;sub style=&quot;&quot;&gt;t-1&lt;br&gt;&lt;/sub&gt;&lt;/font&gt;y&lt;sub&gt;t&lt;br&gt;&lt;/sub&gt;y&lt;sub&gt;t+1&lt;br&gt;&lt;/sub&gt;y&lt;sub&gt;t+2&lt;/sub&gt;&lt;/font&gt;&lt;/h4&gt;" style="text;html=1;align=center;verticalAlign=middle;whiteSpace=wrap;rounded=0;" vertex="1" parent="1">
                    <mxGeometry x="205" width="190" height="310" as="geometry"/>
                </mxCell>
                <mxCell id="4" value="" style="shape=curlyBracket;whiteSpace=wrap;html=1;rounded=1;flipH=1;labelPosition=right;verticalLabelPosition=middle;align=left;verticalAlign=middle;" vertex="1" parent="1">
                    <mxGeometry x="320" y="120" width="20" height="40" as="geometry"/>
                </mxCell>
                <mxCell id="5" value="" style="shape=curlyBracket;whiteSpace=wrap;html=1;rounded=1;flipH=1;labelPosition=right;verticalLabelPosition=middle;align=left;verticalAlign=middle;" vertex="1" parent="1">
                    <mxGeometry x="415" y="120" width="20" height="60" as="geometry"/>
                </mxCell>
                <mxCell id="6" value="" style="shape=curlyBracket;whiteSpace=wrap;html=1;rounded=1;flipH=1;labelPosition=right;verticalLabelPosition=middle;align=left;verticalAlign=middle;" vertex="1" parent="1">
                    <mxGeometry x="490" y="120" width="20" height="90" as="geometry"/>
                </mxCell>
                <mxCell id="8" value="Immediate change&amp;nbsp;&lt;span style=&quot;text-align: start; background-color: transparent;&quot;&gt;β&lt;/span&gt;&lt;sub style=&quot;text-align: start; background-color: transparent;&quot;&gt;0&lt;/sub&gt;" style="text;html=1;align=center;verticalAlign=middle;whiteSpace=wrap;rounded=0;" vertex="1" parent="1">
                    <mxGeometry x="340" y="130" width="60" height="30" as="geometry"/>
                </mxCell>
                <mxCell id="10" value="One period after&amp;nbsp;&lt;span style=&quot;text-align: start; background-color: transparent;&quot;&gt;β&lt;span style=&quot;font-size: 10px;&quot;&gt;1&lt;/span&gt;&lt;/span&gt;" style="text;html=1;align=center;verticalAlign=middle;whiteSpace=wrap;rounded=0;" vertex="1" parent="1">
                    <mxGeometry x="435" y="135" width="60" height="30" as="geometry"/>
                </mxCell>
                <mxCell id="11" value="Two periods after&amp;nbsp;&lt;span style=&quot;text-align: start; background-color: transparent;&quot;&gt;β&lt;span style=&quot;font-size: 10px;&quot;&gt;2&lt;/span&gt;&lt;/span&gt;" style="text;html=1;align=center;verticalAlign=middle;whiteSpace=wrap;rounded=0;" vertex="1" parent="1">
                    <mxGeometry x="510" y="150" width="60" height="30" as="geometry"/>
                </mxCell>
            </root>
        </mxGraphModel>
    </diagram>
</mxfile>